<?xml version="1.0" encoding="UTF-8" standalone="no"?>
<!DOCTYPE svg PUBLIC "-//W3C//DTD SVG 1.1//EN" "http://www.w3.org/Graphics/SVG/1.1/DTD/svg11.dtd">
<svg width="100%" height="100%" viewBox="0 0 2000 2000" version="1.1" xmlns="http://www.w3.org/2000/svg" xmlns:xlink="http://www.w3.org/1999/xlink" xml:space="preserve" xmlns:serif="http://www.serif.com/" style="fill-rule:evenodd;clip-rule:evenodd;stroke-linejoin:round;stroke-miterlimit:2;">
    <g transform="matrix(52.9792,0,0,52.9792,1000,938)">
        <g id="camera" transform="matrix(1,0,0,1,-16,-16)">
            <path d="M9.5,19C9.5,22.59 12.41,25.5 16,25.5C19.59,25.5 22.5,22.59 22.5,19C22.5,15.41 19.59,12.5 16,12.5C12.41,12.5 9.5,15.41 9.5,19ZM30,8L23,8C22.5,6 22,4 20,4L12,4C10,4 9.5,6 9,8L2,8C0.9,8 0,8.9 0,10L0,28C0,29.1 0.9,30 2,30L30,30C31.1,30 32,29.1 32,28L32,10C32,8.9 31.1,8 30,8ZM16,27.875C11.098,27.875 7.125,23.902 7.125,19C7.125,14.098 11.098,10.125 16,10.125C20.902,10.125 24.875,14.098 24.875,19C24.875,23.902 20.902,27.875 16,27.875ZM30,14L26,14L26,12L30,12L30,14Z" style="fill:rgb(1,205,242);fill-rule:nonzero;"/>
        </g>
        <g id="camera1" serif:id="camera">
        </g>
    </g>
</svg>
