<svg xmlns="http://www.w3.org/2000/svg">
          <symbol id="logo" viewBox="0 0 216 98" fill-rule="evenodd" clip-rule="evenodd" stroke-linejoin="round" stroke-miterlimit="1.414">
            <g fill-rule="nonzero"></g>
            <path d="M35.141 36.319c1.334 0 2 1.12 2 3.36 0 1.6-.88 6.227-2.64 13.88-1.76 7.654-3.333 13.987-4.72 19-1.386 5.014-2.693 8.734-3.92 11.16-1.226 2.427-2.706 4.867-4.44 7.32-1.733 2.454-3.64 4.134-5.72 5.04-2.08.907-4.48 1.36-7.2 1.36-5.066 0-7.6-2.586-7.6-7.76 0-3.04 1.147-6.32 3.44-9.84 3.307-5.173 7.734-8.586 13.28-10.24a21.53 21.53 0 0 1 6.16-.88c.374 0 .56.374.56 1.12 0 .747-.186 1.12-.56 1.12-6.293 0-11.573 2.48-15.84 7.44-3.146 3.734-4.72 7.334-4.72 10.8 0 3.467 1.334 5.467 4 6l1.28.08c4.374 0 7.84-1.813 10.4-5.44 2.614-3.68 4.667-8.32 6.16-13.92 1.494-5.653 3.414-14.506 5.76-26.56h-.64c-5.76 10.827-10.506 16.24-14.24 16.24-4.213 0-6.32-3.173-6.32-9.52 0-3.68.96-7.706 2.88-12.08 2.667-5.92 6.054-9.786 10.16-11.6 1.44-.586 2.894-.88 4.36-.88 1.467 0 2.627.427 3.48 1.28.854.854 1.28 1.814 1.28 2.88 0 .48-.253.707-.76.68-.506-.026-.76-.28-.76-.76s-.253-.92-.76-1.32c-.506-.4-1.24-.6-2.2-.6-3.36 0-6.4 3.014-9.12 9.04-2.56 5.6-3.84 10.907-3.84 15.92 0 3.094.667 4.64 2 4.64 1.76 0 4.054-2.08 6.88-6.24 4.267-6.293 7.6-12.453 10-18.48.64-1.493 1.28-2.24 1.92-2.24zM38.501 30.559c0-.586.374-.88 1.12-.88h4.16c.267-1.066.614-2.4 1.04-4l1.12-4.16c.32-1.226.6-2.346.84-3.36.24-1.013.707-1.52 1.4-1.52.907 0 1.547.694 1.92 2.08.16.587.24 1.307.24 2.16 0 .854-.16 1.947-.48 3.28l-1.52 5.52h4.96c.48 0 .814.16 1 .48.187.32.187.627 0 .92-.186.294-.52.44-1 .44h-5.44c-3.306 12.427-4.96 21.227-4.96 26.4 0 3.787.854 5.68 2.56 5.68 1.387 0 3.334-1.84 5.84-5.52 2.507-3.68 4.667-7.36 6.48-11.04l2.72-5.52h2.16c-.32.64-.733 1.507-1.24 2.6-.506 1.094-1.506 3.04-3 5.84-1.493 2.8-2.92 5.267-4.28 7.4a36.42 36.42 0 0 1-4.56 5.8c-1.68 1.734-3.24 2.6-4.68 2.6-1.44 0-2.68-.466-3.72-1.4-1.04-.933-1.706-2.266-2-4a31.856 31.856 0 0 1-.44-5.32c0-4.213 1.494-12.053 4.48-23.52h-3.6c-.426 0-.72-.12-.88-.36-.16-.24-.24-.44-.24-.6z" fill="#00cdf2"></path>
            <path d="M58.341 54.959c0 5.6 1.494 8.4 4.48 8.4 2.027 0 3.92-1.253 5.68-3.76 3.36-4.693 5.414-10.88 6.16-18.56-1.866-.8-3.173-2.106-3.92-3.92-.48-1.12-.72-2.066-.72-2.84 0-.773.107-1.453.32-2.04.48-1.44 1.36-2.16 2.64-2.16s2.254.814 2.92 2.44c.667 1.627 1 3.694 1 6.2v.56c.64.214 1.587.32 2.84.32 1.254 0 2.36-.506 3.32-1.52.96-1.013 1.44-1.946 1.44-2.8 0-.213.134-.36.4-.44.267-.08.52-.066.76.04.24.107.36.267.36.48 0 1.547-.653 3.014-1.96 4.4-1.306 1.387-3.053 2.08-5.24 2.08-.533 0-1.226-.053-2.08-.16a46.108 46.108 0 0 1-2.28 10.76c-1.2 3.547-2.866 6.614-5 9.2-2.133 2.587-4.426 3.88-6.88 3.88-4.64 0-7.493-2.48-8.56-7.44-.266-1.44-.4-2.906-.4-4.4 0-3.36.774-6.96 2.32-10.8 2.027-5.013 4.534-8.133 7.52-9.36 1.547-.533 2.614-.613 3.2-.24.587.374.96.8 1.12 1.28-2.453 0-4.64 2.294-6.56 6.88-1.92 4.587-2.88 9.094-2.88 13.52z" fill="#a8a8a8"></path>
            <path d="M82.741 65.519c-1.493 0-2.24-1.146-2.24-3.44 0-1.226 1.494-10.16 4.48-26.8.16-1.12.64-1.68 1.44-1.68.96 0 1.68.694 2.16 2.08.267.747.4 1.56.4 2.44 0 .88-.106 1.827-.32 2.84l-1.2 6.08h.48c4.694-10.56 9.227-15.84 13.6-15.84 1.494 0 2.68.534 3.56 1.6.88 1.067 1.32 2.347 1.32 3.84 0 2.774-.426 6.24-1.28 10.4h.32c4.534-9.866 8.987-14.8 13.36-14.8 1.44 0 2.614.534 3.52 1.6.907 1.067 1.36 2.48 1.36 4.24 0 1.76-.68 5.494-2.04 11.2-1.36 5.707-2.04 9.734-2.04 12.08 0 3.467.64 5.2 1.92 5.2 0 .374-.24.747-.72 1.12-.48.374-1.04.56-1.68.56-3.093 0-4.64-2.426-4.64-7.28 0-3.04.774-7.426 2.32-13.16 1.547-5.733 2.32-9.413 2.32-11.04 0-1.626-.533-2.44-1.6-2.44-1.973 0-4.28 2.387-6.92 7.16-2.64 4.774-4.746 9.347-6.32 13.72-1.573 4.374-2.493 7.187-2.76 8.44-.266 1.254-.746 1.88-1.44 1.88-1.493 0-2.24-1.146-2.24-3.44 0-.853.454-3.866 1.36-9.04 1.76-9.493 2.64-15.16 2.64-17 0-1.84-.533-2.76-1.6-2.76-1.44 0-3.12 1.48-5.04 4.44-1.92 2.96-3.653 6.387-5.2 10.28-3.36 8.214-5.333 13.52-5.92 15.92-.213 1.067-.666 1.6-1.36 1.6zM137.861 17.599c1.227 0 1.84.827 1.84 2.48 0 1.654-.8 2.987-2.4 4-.8.534-1.493.8-2.08.8-.853 0-1.36-.266-1.52-.8l-.08-.24c.48 0 .827-.52 1.04-1.56a15.76 15.76 0 0 1 1-3.12c.454-1.04 1.187-1.56 2.2-1.56zm-5.12 46c1.387 0 3.334-1.84 5.84-5.52 2.507-3.68 4.667-7.36 6.48-11.04l2.72-5.52h2.16c-.32.64-.733 1.507-1.24 2.6-.506 1.094-1.506 3.04-3 5.84-1.493 2.8-2.92 5.267-4.28 7.4a36.42 36.42 0 0 1-4.56 5.8c-1.68 1.734-3.133 2.6-4.36 2.6-3.946 0-5.92-2.56-5.92-7.68 0-3.84 1.094-10.08 3.28-18.72.214-.906.387-1.6.52-2.08.134-.48.28-1.106.44-1.88.16-.773.32-1.48.48-2.12.267-1.12.747-1.68 1.44-1.68.96 0 1.654.694 2.08 2.08.214.64.32 1.414.32 2.32 0 .907-.106 1.854-.32 2.84-.213.987-.56 2.44-1.04 4.36-.48 1.92-.853 3.494-1.12 4.72-.266 1.227-.56 2.72-.88 4.48-.586 2.934-.88 5.534-.88 7.8 0 2.267.614 3.4 1.84 3.4z" fill="#a8a8a8"></path>
            <path d="M145.621 54.159c0 6.24 2.16 9.36 6.48 9.36 1.707 0 3.507-.76 5.4-2.28 1.894-1.52 3.614-3.346 5.16-5.48 3.414-4.906 5.814-8.906 7.2-12l1.04-2.24h2.16c-.906 2.134-2.24 4.76-4 7.88-1.76 3.12-3.44 5.747-5.04 7.88a31.511 31.511 0 0 1-5.68 5.8c-2.186 1.734-4.266 2.6-6.24 2.6-5.546 0-9.066-2.533-10.56-7.6-.48-1.6-.72-3.613-.72-6.04 0-2.426.747-5.4 2.24-8.92 2.187-5.226 5.174-8.746 8.96-10.56 1.494-.693 2.974-1.04 4.44-1.04 1.467 0 2.627.4 3.48 1.2 1.014.96 1.52 2.067 1.52 3.32 0 1.254-.133 2.414-.4 3.48-.266 1.067-.813 2.014-1.64 2.84-.826.827-1.746 1.24-2.76 1.24-.426 0-.746-.293-.96-.88.427 0 1-.76 1.72-2.28.72-1.52 1.08-3.026 1.08-4.52 0-1.493-.64-2.24-1.92-2.24-2.773 0-5.293 2.32-7.56 6.96-2.266 4.64-3.4 9.147-3.4 13.52z" fill="#a8a8a8"></path>
            <path d="M182.501 44.719c2.08-3.04 3.12-5.653 3.12-7.84 0-2.186-.72-3.28-2.16-3.28-1.706 0-3.573 1.427-5.6 4.28-2.026 2.854-3.84 6.254-5.44 10.2-3.093 7.627-4.986 12.907-5.68 15.84-.32 1.067-.773 1.6-1.36 1.6-.96 0-1.68-.586-2.16-1.76-.266-.64-.4-1.32-.4-2.04s.214-2.053.64-4c.427-1.946 1.134-5.373 2.12-10.28a989.72 989.72 0 0 1 2.52-12.2c.694-3.226 1.494-6.853 2.4-10.88.907-4.026 1.774-7.306 2.6-9.84a70.886 70.886 0 0 1 2.84-7.32c2.027-4.586 4.347-6.88 6.96-6.88 2.4 0 3.6 1.6 3.6 4.8 0 .8-.08 1.734-.24 2.8-.8 5.067-2.906 10.294-6.32 15.68-2.453 3.894-4.773 6.347-6.96 7.36-.373 1.974-.88 4.8-1.52 8.48-.64 3.68-1.093 6.24-1.36 7.68h.4c4.534-10.293 9.147-15.44 13.84-15.44 3.52 0 5.28 1.947 5.28 5.84 0 2.56-1.08 5.334-3.24 8.32-2.16 2.987-5.053 4.907-8.68 5.76 1.814.694 3.347 1.907 4.6 3.64 1.254 1.734 2.12 3.4 2.6 5 1.227 4.214 2.454 6.32 3.68 6.32 0 .374-.24.747-.72 1.12-.48.374-1.04.56-1.68.56-1.813 0-3.24-.853-4.28-2.56a15.204 15.204 0 0 1-2.04-5.6c-.32-2.026-.906-3.893-1.76-5.6-.853-1.706-2.026-2.56-3.52-2.56h-.16c-.48 0-.826-.373-1.04-1.12 3.307 0 6.347-2.026 9.12-6.08zm2.16-39.44c0-1.706-.48-2.746-1.44-3.12-3.146 0-6.4 8.8-9.76 26.4 2.134-1.493 4.347-4.48 6.64-8.96 3.04-6.026 4.56-10.8 4.56-14.32zM201.861 17.599c1.227 0 1.84.827 1.84 2.48 0 1.654-.8 2.987-2.4 4-.8.534-1.493.8-2.08.8-.853 0-1.36-.266-1.52-.8l-.08-.24c.48 0 .827-.52 1.04-1.56a15.76 15.76 0 0 1 1-3.12c.454-1.04 1.187-1.56 2.2-1.56zm-5.12 46c1.387 0 3.334-1.84 5.84-5.52 2.507-3.68 4.667-7.36 6.48-11.04l2.72-5.52h2.16c-.32.64-.733 1.507-1.24 2.6-.506 1.094-1.506 3.04-3 5.84-1.493 2.8-2.92 5.267-4.28 7.4a36.42 36.42 0 0 1-4.56 5.8c-1.68 1.734-3.133 2.6-4.36 2.6-3.946 0-5.92-2.56-5.92-7.68 0-3.84 1.094-10.08 3.28-18.72.214-.906.387-1.6.52-2.08.134-.48.28-1.106.44-1.88.16-.773.32-1.48.48-2.12.267-1.12.747-1.68 1.44-1.68.96 0 1.654.694 2.08 2.08.214.64.32 1.414.32 2.32 0 .907-.106 1.854-.32 2.84-.213.987-.56 2.44-1.04 4.36-.48 1.92-.853 3.494-1.12 4.72-.266 1.227-.56 2.72-.88 4.48-.586 2.934-.88 5.534-.88 7.8 0 2.267.614 3.4 1.84 3.4z" fill="#a8a8a8"></path>
            <g class="header-sentence">
              <text x="55" y="-5.632" font-size="10px" fill="var(--font-color)" transform="translate(-18 90)">Bo życie to nie ilość wdechów czy wydechów,</text>
              <text x="55" y="3.368" font-size="10px" fill="var(--font-color)" transform="translate(-18 90)">to chwile, które zapierają nam dech.</text>
            </g>
          </symbol>
          <symbol id="facebook-icon" viewBox="0 0 32 32">
            <path style="fill:var(--svg-color)" d="M19 6h5V0h-5c-3.86 0-7 3.14-7 7v3H8v6h4v16h6V16h5l1-6h-6V7c0-.542.458-1 1-1z"></path>
          </symbol>
          <symbol id="twitter-icon" viewBox="0 0 32 32">
            <path style="fill:var(--svg-color)" d="M32 7.075a12.941 12.941 0 01-3.769 1.031 6.601 6.601 0 002.887-3.631 13.21 13.21 0 01-4.169 1.594A6.565 6.565 0 0022.155 4a6.563 6.563 0 00-6.563 6.563c0 .512.056 1.012.169 1.494A18.635 18.635 0 012.23 5.195a6.56 6.56 0 00-.887 3.3 6.557 6.557 0 002.919 5.463 6.565 6.565 0 01-2.975-.819v.081a6.565 6.565 0 005.269 6.437 6.574 6.574 0 01-2.968.112 6.588 6.588 0 006.131 4.563 13.17 13.17 0 01-9.725 2.719 18.568 18.568 0 0010.069 2.95c12.075 0 18.681-10.006 18.681-18.681 0-.287-.006-.569-.019-.85A13.216 13.216 0 0032 7.076z"></path>
          </symbol>
          <symbol id="mail-icon" viewBox="0 0 30 30">
            <path style="fill:var(--svg-color)" d="M28 11.094V23.5c0 1.375-1.125 2.5-2.5 2.5h-23A2.507 2.507 0 010 23.5V11.094c.469.516 1 .969 1.578 1.359 2.594 1.766 5.219 3.531 7.766 5.391 1.313.969 2.938 2.156 4.641 2.156h.031c1.703 0 3.328-1.188 4.641-2.156 2.547-1.844 5.172-3.625 7.781-5.391a9.278 9.278 0 001.563-1.359zM28 6.5c0 1.75-1.297 3.328-2.672 4.281-2.438 1.687-4.891 3.375-7.313 5.078-1.016.703-2.734 2.141-4 2.141h-.031c-1.266 0-2.984-1.437-4-2.141-2.422-1.703-4.875-3.391-7.297-5.078-1.109-.75-2.688-2.516-2.688-3.938 0-1.531.828-2.844 2.5-2.844h23c1.359 0 2.5 1.125 2.5 2.5z"></path>
          </symbol>
          <symbol id="share-icon" viewBox="0 0 32 32">
            <path style="fill:var(--svg-color)" d="M27 22a4.985 4.985 0 00-3.594 1.526L9.937 16.792a5.035 5.035 0 000-1.582l13.469-6.734a5 5 0 10-1.343-2.683L8.594 12.527A5 5 0 105 21.001a4.985 4.985 0 003.594-1.526l13.469 6.734A5 5 0 1027 22z"></path>
          </symbol>
          <symbol id="sun-icon" viewBox="0 0 32 32">
            <path d="M16 9c-3.859 0-7 3.141-7 7s3.141 7 7 7 7-3.141 7-7-3.141-7-7-7zm0 12c-2.762 0-5-2.238-5-5s2.238-5 5-5 5 2.238 5 5-2.238 5-5 5zm0-14a1 1 0 001-1V4a1 1 0 00-2 0v2a1 1 0 001 1zm0 18a1 1 0 00-1 1v2a1 1 0 002 0v-2a1 1 0 00-1-1zm7.777-15.365l1.414-1.414a.999.999 0 10-1.414-1.414l-1.414 1.414a.999.999 0 101.414 1.414zM8.223 22.365l-1.414 1.414a.999.999 0 101.414 1.414l1.414-1.414a.999.999 0 10-1.414-1.414zM7 16a1 1 0 00-1-1H4a1 1 0 000 2h2a1 1 0 001-1zm21-1h-2a1 1 0 000 2h2a1 1 0 000-2zM8.221 9.635a.999.999 0 101.414-1.414L8.221 6.807a.999.999 0 10-1.414 1.414l1.414 1.414zm15.558 12.728a.999.999 0 10-1.414 1.414l1.414 1.414a.999.999 0 101.414-1.414l-1.414-1.414z"></path>
          </symbol>
          <symbol id="moon-icon" viewBox="0 0 32 32">
            <path d="M21.866 21.447c-3.117 3.12-8.193 3.12-11.313 0s-3.12-8.195 0-11.314a7.952 7.952 0 012.989-1.863.998.998 0 011.039.237.995.995 0 01.237 1.039c-.784 2.211-.25 4.604 1.391 6.245 1.638 1.639 4.031 2.172 6.245 1.391a.996.996 0 011.039.237.995.995 0 01.236 1.039 7.907 7.907 0 01-1.863 2.989zm-9.899-9.9a6.007 6.007 0 000 8.486c2.5 2.501 6.758 2.276 8.937-.51-2.247.141-4.461-.671-6.109-2.318s-2.458-3.861-2.318-6.108c-.18.141-.35.29-.51.451z"></path>
          </symbol>
        </svg>